<?xml version="1.0" encoding="UTF-8"?>
<!DOCTYPE svg PUBLIC "-//W3C//DTD SVG 1.1//EN" "http://www.w3.org/Graphics/SVG/1.1/DTD/svg11.dtd">
<svg xmlns="http://www.w3.org/2000/svg" xml:space="preserve" width="64.4582mm" height="14.32mm" version="1.1" style="shape-rendering:geometricPrecision; text-rendering:geometricPrecision; image-rendering:optimizeQuality; fill-rule:evenodd; clip-rule:evenodd"
viewBox="0 0 4922.35 1093.55"
 xmlns:xlink="http://www.w3.org/1999/xlink">
 <defs>
  <style type="text/css">
   <![CDATA[
    .fil0 {fill:white}
    .fil1 {fill:white;fill-rule:nonzero}
   ]]>
  </style>
 </defs>
 <g id="Camada_x0020_1">
  <metadata id="CorelCorpID_0Corel-Layer"/>
  <path class="fil0" d="M546.77 0c301.97,0 546.77,244.8 546.77,546.77 0,301.98 -244.8,546.77 -546.77,546.77 -301.98,0 -546.77,-244.8 -546.77,-546.77 0,-301.98 244.8,-546.77 546.77,-546.77zm-222.15 444.26c6.7,0 13.3,0.36 19.79,1.03 15.82,-97.47 100.4,-171.91 202.37,-171.91 113.24,0 205.06,91.81 205.06,205.05 0,1.15 -0.02,2.28 -0.05,3.44 11.06,-2.25 22.52,-3.44 34.24,-3.44 94.35,0 170.84,76.49 170.84,170.85 0,94.37 -76.49,170.87 -170.84,170.87l-0.11 0 -461.22 0 -0.08 0c-103.79,0 -187.94,-84.16 -187.94,-187.96 0,-103.8 84.15,-187.94 187.94,-187.94z"/>
  <g id="_2395150127072">
   <path class="fil1" d="M4186.08 290.61c5.03,-1.24 10.95,-2.6 17.76,-4.09 6.38,-1.39 13.27,-2.83 20.68,-4.29 7.64,-1.51 15.44,-2.99 23.38,-4.44 8.67,-1.58 17.09,-3.06 25.25,-4.44 9.16,-1.55 18.65,-2.9 28.45,-4.05 9.75,-1.15 19.92,-2.1 30.51,-2.87 10.29,-0.76 21.14,-1.33 32.55,-1.72 11.57,-0.4 23.05,-0.6 34.46,-0.6 8.68,0 17.13,0.3 25.33,0.9 8.09,0.58 15.93,1.48 23.52,2.68 7.65,1.21 14.88,2.72 21.69,4.5 6.82,1.79 13.39,3.93 19.7,6.39 6.23,2.44 12.21,5.15 17.92,8.15 5.83,3.05 11.32,6.34 16.46,9.84 4.4,3 8.68,6.25 12.82,9.75 2.79,2.35 5.49,4.8 8.1,7.33l0.61 -0.38c2.07,-1.3 4.21,-2.61 6.39,-3.94 2.43,-1.47 4.82,-2.9 7.13,-4.27l0 -0.02c2.79,-1.65 5.69,-3.26 8.67,-4.82 2.89,-1.5 6.06,-3.06 9.52,-4.67 3.22,-1.5 6.65,-3.01 10.26,-4.52 3.45,-1.45 7.2,-2.94 11.22,-4.47 4.15,-1.58 8.15,-3.02 11.96,-4.31 3.83,-1.3 8.03,-2.63 12.6,-4.01 4.12,-1.24 8.52,-2.49 13.18,-3.74l0 -0.02c4.07,-1.08 8.67,-2.24 13.8,-3.46 5.05,-1.19 10,-2.21 14.85,-3.04 4.93,-0.86 10.02,-1.57 15.24,-2.14 5.12,-0.57 10.39,-0.99 15.8,-1.29 5.51,-0.29 10.9,-0.44 16.15,-0.44 10.49,0 20.57,0.38 30.22,1.15 9.52,0.76 18.71,1.91 27.54,3.47 8.8,1.55 17.16,3.5 25.03,5.84 7.98,2.37 15.43,5.14 22.35,8.28 6.84,3.1 13.42,6.59 19.7,10.45 6.31,3.88 12.18,8.05 17.6,12.49 5.52,4.52 10.66,9.38 15.41,14.56 4.72,5.14 9.09,10.65 13.1,16.53 3.91,5.74 7.52,11.76 10.81,18.07 3.3,6.31 6.25,12.82 8.85,19.54l0.01 -0.01c2.6,6.73 4.9,13.73 6.88,21 1.96,7.21 3.63,14.71 4.97,22.5 2.62,15.11 4.57,30.88 5.88,47.28 1.31,16.44 1.96,33.49 1.96,51.14l0 293.13 0 6.2 0 6.18 -6.29 0 -6.29 0 -94.79 0 -6.29 0 -6.29 0 0 -6.18 0 -6.2 0 -273.05c0,-15.36 -0.37,-29.43 -1.1,-42.22 -0.75,-12.93 -1.86,-24.75 -3.34,-35.43 -0.71,-5.12 -1.59,-10.1 -2.64,-14.91 -1.04,-4.76 -2.22,-9.26 -3.54,-13.48 -1.32,-4.22 -2.79,-8.19 -4.38,-11.9 -1.58,-3.68 -3.33,-7.18 -5.24,-10.48 -1.86,-3.24 -3.85,-6.19 -5.94,-8.87l-0.02 0c-2.12,-2.71 -4.4,-5.22 -6.83,-7.51 -2.37,-2.23 -4.94,-4.29 -7.72,-6.19 -2.82,-1.92 -5.74,-3.61 -8.73,-5.06 -3.12,-1.5 -6.51,-2.83 -10.16,-3.98 -3.65,-1.15 -7.57,-2.11 -11.74,-2.89 -4.22,-0.79 -8.77,-1.38 -13.68,-1.79 -4.85,-0.4 -10.01,-0.6 -15.47,-0.6 -7.79,0 -15.14,0.24 -22.02,0.74 -7.02,0.5 -13.59,1.23 -19.73,2.21 -6.03,0.95 -11.8,2.17 -17.31,3.63l0 0.01c-5.5,1.46 -10.55,3.13 -15.17,4.99 -4.68,1.89 -9.23,3.84 -13.63,5.86 -4.33,1.98 -8.08,3.81 -11.26,5.51 -2.29,1.22 -4.4,2.43 -6.32,3.61l-0.02 0c-0.48,0.29 -0.94,0.58 -1.39,0.87 0.73,2.6 1.43,5.19 2.08,7.76 1.02,4.04 1.99,8.18 2.89,12.42 1.05,4.93 2.02,9.95 2.89,15.05 0.83,4.93 1.62,10.19 2.35,15.78 0.71,5.43 1.33,10.84 1.85,16.23 0.53,5.58 0.97,11.07 1.31,16.46 0.34,5.45 0.6,11.12 0.78,16.99 0.19,6.16 0.29,11.87 0.29,17.11l0 293.13 0 6.2 0 6.18 -6.29 0 -6.29 0 -94.79 0 -6.29 0 -6.29 0 0 -6.18 0 -6.2 0 -273.05c0,-15.24 -0.41,-29.27 -1.23,-42.07 -0.82,-12.83 -2.06,-24.63 -3.72,-35.4 -0.82,-5.38 -1.78,-10.4 -2.84,-15.03 -1.05,-4.6 -2.29,-9.09 -3.7,-13.45 -1.37,-4.26 -2.87,-8.24 -4.47,-11.94 -1.63,-3.74 -3.4,-7.25 -5.29,-10.55 -1.87,-3.24 -3.85,-6.19 -5.94,-8.87l-0.03 0c-2.12,-2.71 -4.4,-5.22 -6.83,-7.51 -2.37,-2.23 -4.94,-4.29 -7.72,-6.19 -2.82,-1.92 -5.73,-3.61 -8.73,-5.06 -3.12,-1.5 -6.49,-2.83 -10.1,-3.98 -3.6,-1.15 -7.47,-2.11 -11.59,-2.89 -4.15,-0.79 -8.61,-1.39 -13.37,-1.79 -4.73,-0.4 -9.72,-0.6 -14.98,-0.6 -5.15,0 -9.98,0.08 -14.51,0.22 -4.76,0.15 -9.86,0.4 -15.31,0.73l-0.02 0c-2.2,0.14 -4.77,0.31 -7.69,0.52 -2.36,0.17 -5.02,0.37 -7.99,0.61 -3.83,0.31 -6.41,0.53 -7.74,0.64 -2.06,0.19 -4.47,0.42 -7.12,0.69 -2.07,0.21 -4.42,0.47 -7.11,0.77 -2.88,0.34 -5.1,0.6 -6.69,0.81 -1.53,0.2 -3.64,0.5 -6.22,0.87 -2.25,0.34 -4.31,0.66 -6.21,0.96 -1.35,0.22 -3.16,0.53 -5.54,0.94l-0.24 0.05 0 430.54 0 6.2 0 6.18 -6.29 0 -6.28 0 -94.8 0 -6.28 0 -6.29 0 0 -6.18 0 -6.2 0 -506.95 0.02 0 0 -4.83 0 -4.81 4.74 -1.17 4.77 -1.18z"/>
   <path class="fil1" d="M3978.4 482.36c-0.27,-6.22 -0.86,-12.3 -1.74,-18.22 -1.16,-7.74 -2.86,-15.13 -5.08,-22.13 -2.45,-7.73 -5.53,-15.01 -9.24,-21.81 -3.71,-6.82 -8.08,-13.23 -13.09,-19.22 -4.89,-5.86 -10.26,-10.99 -16.07,-15.38 -5.74,-4.35 -11.97,-7.98 -18.68,-10.89 -6.77,-2.94 -14.02,-5.15 -21.76,-6.61 -7.78,-1.48 -16.11,-2.22 -24.99,-2.22 -5.16,0 -10.03,0.23 -14.59,0.68 -4.57,0.45 -9.05,1.14 -13.44,2.07 -4.33,0.92 -8.45,2.05 -12.37,3.39 -3.9,1.34 -7.75,2.93 -11.54,4.78 -3.96,1.94 -7.64,3.95 -11.03,6.02 -3.44,2.09 -6.77,4.35 -10.01,6.79 -3.17,2.38 -6.2,4.91 -9.1,7.58 -2.92,2.7 -5.67,5.51 -8.27,8.45 -2.69,3.03 -5.2,6.14 -7.53,9.32 -2.35,3.21 -4.55,6.51 -6.59,9.91 -2.02,3.37 -3.94,6.93 -5.74,10.65 -1.81,3.76 -3.45,7.56 -4.92,11.41 -1.5,3.93 -2.89,7.97 -4.18,12.09 -1.27,4.07 -2.41,8.15 -3.41,12.22l-0.01 0c-0.69,2.82 -1.35,5.84 -1.99,9.07 -0.13,0.69 -0.27,1.38 -0.4,2.07l235.75 0zm-363.78 62.13c0,-11.5 0.44,-22.7 1.33,-33.62 0.88,-10.84 2.2,-21.37 3.97,-31.61 1.76,-10.16 3.97,-20.05 6.65,-29.62 2.67,-9.54 5.79,-18.72 9.35,-27.52 3.56,-8.8 7.39,-17.18 11.47,-25.13 4.16,-8.1 8.58,-15.77 13.26,-23.01 4.72,-7.31 9.77,-14.29 15.13,-20.93 5.32,-6.59 10.95,-12.82 16.89,-18.7 5.96,-5.9 12.1,-11.39 18.4,-16.45 6.36,-5.12 12.96,-9.88 19.81,-14.29 6.74,-4.35 13.81,-8.38 21.2,-12.11 7.29,-3.67 14.78,-6.97 22.44,-9.88 7.76,-2.94 15.47,-5.49 23.12,-7.64 7.68,-2.15 15.5,-3.98 23.46,-5.45 7.82,-1.44 15.74,-2.54 23.76,-3.28 8.1,-0.75 16.08,-1.12 23.93,-1.12 18.56,0 36.12,1.41 52.65,4.22 16.53,2.81 32.06,7.05 46.56,12.71 14.64,5.72 28.15,12.86 40.51,21.41 12.39,8.56 23.68,18.56 33.88,30.02 10.18,11.43 19.05,24.27 26.61,38.53 7.54,14.21 13.81,29.88 18.81,46.98 4.93,16.86 8.62,35.12 11.08,54.78 2.45,19.59 3.68,40.57 3.68,62.92l0 15.17c0,3.15 -0.1,6.37 -0.29,9.62l0 0.02c-0.18,3.02 -0.47,6.02 -0.86,8.99l-0.69 5.31 -0.7 5.41 -5.51 0 -5.55 0 -349.05 0c1.07,8.81 2.53,17.23 4.35,25.22 2.27,9.93 5.13,19.23 8.58,27.9 3.71,9.32 8.06,17.84 13.07,25.55 4.99,7.71 10.66,14.68 17.02,20.94 6.22,6.12 13.35,11.49 21.37,16.1 8.08,4.64 17.11,8.54 27.06,11.68 10.19,3.21 21.36,5.62 33.5,7.23 12.13,1.61 25.34,2.42 39.6,2.42 16.31,0 31.19,-0.66 44.62,-1.99 13.43,-1.32 25.59,-3.31 36.45,-5.95 5.64,-1.37 10.86,-2.72 15.65,-4.03 4.98,-1.36 9.47,-2.67 13.48,-3.93 4.04,-1.27 7.77,-2.54 11.19,-3.79 3.31,-1.22 6.28,-2.43 8.9,-3.6l-0.01 -0.02 7.48 -3.38 7.45 -3.36 1.38 7.93 1.36 7.84 13.25 76.33 0 0.03 0.74 4.28 0.76 4.41 -4.08 2.08 -4.01 2.04c-3.19,1.62 -6.99,3.27 -11.38,4.93 -4.37,1.66 -9.2,3.31 -14.49,4.93 -5.22,1.6 -11.03,3.24 -17.4,4.89 -6.28,1.63 -13.07,3.28 -20.35,4.92 -7.39,1.67 -15.12,3.15 -23.17,4.42 -7.96,1.26 -16.19,2.31 -24.66,3.16 -8.46,0.84 -17.15,1.47 -26.05,1.89 -9.14,0.43 -18.24,0.65 -27.32,0.65 -11.84,0 -23.34,-0.44 -34.49,-1.31 -11.12,-0.86 -21.87,-2.17 -32.24,-3.9 -10.33,-1.73 -20.34,-3.92 -30.01,-6.56 -9.71,-2.66 -18.97,-5.73 -27.77,-9.23 -8.77,-3.48 -17.21,-7.33 -25.29,-11.52 -8,-4.15 -15.68,-8.68 -23.03,-13.57 -7.39,-4.91 -14.34,-10.13 -20.86,-15.65 -6.58,-5.58 -12.75,-11.47 -18.48,-17.66 -11.47,-12.39 -21.47,-25.96 -30,-40.69 -8.5,-14.68 -15.52,-30.51 -21.05,-47.48 -2.75,-8.44 -5.15,-17.03 -7.19,-25.78 -2.05,-8.79 -3.76,-17.76 -5.12,-26.92l0 0c-1.36,-9.14 -2.38,-18.5 -3.07,-28.07 -0.68,-9.61 -1.03,-19.31 -1.03,-29.09z"/>
   <path class="fil1" d="M3560.21 279.8c-13.29,50 -27.75,99.06 -43.38,147.15 -15.69,48.27 -32.46,95.29 -50.29,141.06 -8.53,21.89 -17.37,44.15 -26.54,66.78 -8.87,21.94 -17.62,43.15 -26.23,63.63 -8.97,21.31 -17.56,41.32 -25.78,60.05 -8.42,19.18 -16.82,37.88 -25.21,56.12l-1.69 3.68 -1.68 3.65 -4.05 0 -4.01 0 -85.62 0 -4.01 0 -4.05 0 -1.67 -3.65 -1.7 -3.68c-8.38,-18.24 -16.79,-36.96 -25.22,-56.14 -8.22,-18.72 -16.81,-38.73 -25.77,-60.03 -8.61,-20.48 -17.37,-41.7 -26.24,-63.64 -9.16,-22.64 -18.01,-44.9 -26.53,-66.77 -17.84,-45.77 -34.6,-92.79 -50.29,-141.06 -15.64,-48.09 -30.1,-97.14 -43.39,-147.15l-2.12 -7.96 -2.05 -7.72 8.12 0 8.19 0 101.93 0 4.91 0 4.93 0 1.16 4.76 1.18 4.84c1.83,7.5 3.96,15.99 6.4,25.43 2.28,8.88 4.59,17.59 6.9,26.12 2.43,8.96 4.92,17.91 7.45,26.85 2.67,9.39 5.38,18.76 8.14,28.09 2.56,8.64 5.43,18.17 8.6,28.52 3.05,9.96 5.93,19.26 8.66,27.87 2.92,9.21 5.88,18.4 8.88,27.58 3.21,9.8 6.34,19.21 9.39,28.26 2.66,7.86 5.8,17.06 9.44,27.58 3.63,10.53 6.8,19.6 9.49,27.21 2.76,7.81 6.01,16.88 9.71,27.1 3.36,9.29 6.51,17.92 9.46,25.87 3.25,8.75 6.35,17.02 9.32,24.8 3.06,8.03 6.22,16.16 9.45,24.38 1.76,4.48 3.8,9.58 6.09,15.27l0.01 -0.01 0.06 0.15c3.02,-7.52 6.1,-15.27 9.21,-23.27 5.28,-13.55 10.52,-27.33 15.7,-41.33 2.96,-7.97 6.12,-16.62 9.49,-25.93 3.7,-10.22 6.91,-19.2 9.68,-27.03 2.7,-7.64 5.86,-16.68 9.49,-27.2 3.63,-10.53 6.78,-19.73 9.44,-27.6 3.06,-9.05 6.19,-18.48 9.4,-28.27 3,-9.18 5.96,-18.37 8.88,-27.58 2.72,-8.61 5.61,-17.91 8.66,-27.88 3.17,-10.35 6.03,-19.85 8.59,-28.51 2.76,-9.34 5.48,-18.69 8.14,-28.08 2.54,-8.95 5.03,-17.9 7.46,-26.86 2.31,-8.52 4.61,-17.24 6.9,-26.12 2.44,-9.45 4.57,-17.92 6.4,-25.42l1.18 -4.84 1.16 -4.76 4.93 0 4.92 0 97.85 0 8.18 0 8.12 0 -2.05 7.72 -2.12 7.96z"/>
   <path class="fil1" d="M1376.47 290.61c5.19,-1.28 11.22,-2.67 18.05,-4.16 6.4,-1.39 13.24,-2.81 20.53,-4.25l0 -0.02c6.42,-1.26 14.11,-2.7 23.05,-4.31 8.55,-1.54 17.23,-3.05 26,-4.51 9.29,-1.56 18.85,-2.91 28.65,-4.05 9.81,-1.15 20.02,-2.11 30.63,-2.87 10.32,-0.76 21.21,-1.33 32.64,-1.72 11.59,-0.4 23.09,-0.6 34.49,-0.6 10.78,0 21.18,0.38 31.21,1.15 10.01,0.76 19.59,1.91 28.72,3.44 9.24,1.54 18.01,3.47 26.31,5.8 8.3,2.32 16.19,5.06 23.67,8.2 7.46,3.13 14.52,6.57 21.16,10.3 6.62,3.71 12.97,7.8 19.03,12.28 6.06,4.46 11.71,9.22 16.95,14.26 5.25,5.06 10.13,10.44 14.64,16.14 4.44,5.62 8.56,11.54 12.36,17.75 3.78,6.18 7.25,12.66 10.39,19.44 3.11,6.7 5.9,13.68 8.36,20.96 2.46,7.27 4.58,14.77 6.36,22.49 3.51,15.22 6.15,31.18 7.9,47.87 1.76,16.76 2.63,34.17 2.63,52.21l0 293.13 0 6.2 0 6.18 -6.29 0 -6.29 0 -94.79 0 -6.29 0 -6.29 0 0 -6.18 0 -6.2 0 -273.05c0,-15.77 -0.53,-30.32 -1.6,-43.63 -1.07,-13.36 -2.67,-25.49 -4.78,-36.39 -1.03,-5.34 -2.24,-10.4 -3.6,-15.19 -1.35,-4.77 -2.88,-9.28 -4.55,-13.5 -1.63,-4.11 -3.43,-7.99 -5.41,-11.65 -1.93,-3.6 -4.02,-6.94 -6.25,-10.01 -2.18,-3.01 -4.54,-5.81 -7.09,-8.4 -2.53,-2.58 -5.25,-4.96 -8.14,-7.13 -2.9,-2.18 -6,-4.16 -9.29,-5.94 -3.28,-1.78 -6.78,-3.36 -10.48,-4.75 -3.78,-1.41 -7.84,-2.67 -12.17,-3.75 -4.36,-1.08 -8.96,-1.99 -13.78,-2.73 -5,-0.75 -10.19,-1.31 -15.57,-1.68 -5.38,-0.37 -11.12,-0.56 -17.22,-0.56 -5.5,0 -10.59,0.08 -15.27,0.22 -4.93,0.15 -10.12,0.4 -15.56,0.73l-0.02 0c-2.2,0.14 -4.77,0.31 -7.69,0.52 -2.36,0.17 -5.02,0.37 -7.99,0.61 -3.83,0.31 -6.41,0.53 -7.74,0.64 -2.06,0.19 -4.47,0.42 -7.12,0.69 -1.88,0.19 -4.23,0.45 -6.96,0.76 -2.83,0.33 -5.03,0.6 -6.67,0.82 -1.53,0.2 -3.57,0.5 -6.04,0.87l0 0c-2.27,0.34 -4.26,0.66 -5.98,0.96l0 0 -6.14 1.05 -0.23 0.05 0 430.42 0 6.2 0 6.18 -6.29 0 -6.29 0 -94.79 0 -6.29 0 -6.29 0 0 -6.18 0 -6.2 0 -506.95 0 -4.83 0 -4.81 4.77 -1.17 4.77 -1.18z"/>
   <path class="fil1" d="M2372.59 795.43c-5.03,1.24 -10.96,2.6 -17.77,4.09 -6.38,1.39 -13.26,2.82 -20.66,4.28 -7.62,1.51 -15.4,2.99 -23.32,4.44 -8.69,1.58 -17.12,3.06 -25.31,4.44 -9.15,1.54 -18.63,2.89 -28.42,4.05 -9.75,1.14 -19.92,2.1 -30.52,2.87 -10.29,0.76 -21.14,1.32 -32.54,1.72 -11.58,0.4 -23.07,0.6 -34.47,0.6 -10.48,0 -20.6,-0.39 -30.37,-1.15 -9.74,-0.76 -19.1,-1.91 -28.06,-3.44 -9.07,-1.55 -17.7,-3.48 -25.9,-5.8l0 -0.02c-8.34,-2.36 -16.19,-5.09 -23.54,-8.18 -7.46,-3.13 -14.53,-6.58 -21.19,-10.33 -6.64,-3.73 -13.03,-7.87 -19.13,-12.37 -6.08,-4.49 -11.77,-9.29 -17.07,-14.39 -5.29,-5.11 -10.25,-10.56 -14.85,-16.37 -4.63,-5.83 -8.86,-11.81 -12.69,-17.92 -3.85,-6.16 -7.42,-12.62 -10.69,-19.38 -3.24,-6.68 -6.16,-13.62 -8.76,-20.8 -2.6,-7.18 -4.89,-14.61 -6.86,-22.28 -1.89,-7.38 -3.59,-15.13 -5.06,-23.24 -1.47,-8.07 -2.69,-16.23 -3.64,-24.45 -0.95,-8.26 -1.67,-16.78 -2.16,-25.56 -0.5,-8.89 -0.74,-17.76 -0.74,-26.62l0 -293.13 0 -6.19 0 -6.18 6.29 0 6.29 0 94.79 0 6.29 0 6.29 0 0 6.18 0 6.19 0 273.05c0,15.69 0.61,30.07 1.82,43.13 1.21,13.06 3.05,25.08 5.51,36.05 2.38,10.64 5.32,20.13 8.8,28.48 3.46,8.29 7.46,15.49 11.99,21.6 4.37,5.87 9.52,11.04 15.44,15.49 5.93,4.45 12.66,8.19 20.18,11.19 7.79,3.12 16.41,5.45 25.86,7.01 9.53,1.57 19.98,2.37 31.34,2.37 5.5,0 10.58,-0.08 15.25,-0.22 4.98,-0.16 10.19,-0.4 15.62,-0.73 2.17,-0.14 4.74,-0.31 7.61,-0.52 2.21,-0.16 4.81,-0.36 7.89,-0.61 3.74,-0.31 6.21,-0.52 7.59,-0.65 2.05,-0.18 4.32,-0.41 6.9,-0.69 4.46,-0.47 9.03,-0.98 13.67,-1.51 4.91,-0.57 8.94,-1.05 12.03,-1.45 1.65,-0.21 3.29,-0.45 4.91,-0.71l0.95 -0.16 0 -431.11 0 -6.19 0 -6.18 6.29 0 6.29 0 94.79 0 6.29 0 6.29 0 0 6.18 0 6.19 0 506.95 0 4.83 0 4.81 -4.77 1.17 -4.77 1.18z"/>
   <path class="fil1" d="M2934.53 795.43c-5.03,1.24 -10.96,2.6 -17.78,4.09 -6.37,1.39 -13.26,2.82 -20.66,4.28 -7.62,1.51 -15.4,2.99 -23.31,4.44 -8.69,1.58 -17.12,3.06 -25.31,4.44 -9.15,1.54 -18.63,2.89 -28.42,4.05 -9.75,1.14 -19.93,2.1 -30.52,2.87 -10.29,0.76 -21.14,1.32 -32.54,1.72 -11.58,0.4 -23.07,0.6 -34.48,0.6 -10.47,0 -20.6,-0.39 -30.37,-1.15 -9.74,-0.76 -19.09,-1.91 -28.06,-3.44 -9.06,-1.55 -17.7,-3.48 -25.89,-5.8l0 -0.02c-8.35,-2.36 -16.19,-5.09 -23.54,-8.18 -7.46,-3.13 -14.53,-6.58 -21.19,-10.33 -6.64,-3.73 -13.03,-7.87 -19.13,-12.37 -6.08,-4.49 -11.78,-9.29 -17.07,-14.39 -5.3,-5.11 -10.25,-10.56 -14.85,-16.37 -4.63,-5.83 -8.86,-11.81 -12.69,-17.92 -3.86,-6.16 -7.42,-12.62 -10.7,-19.38 -3.23,-6.68 -6.16,-13.62 -8.76,-20.8 -2.6,-7.18 -4.89,-14.61 -6.85,-22.28 -1.9,-7.38 -3.59,-15.13 -5.07,-23.24 -1.47,-8.07 -2.69,-16.23 -3.63,-24.45 -0.95,-8.26 -1.68,-16.78 -2.16,-25.56 -0.5,-8.89 -0.74,-17.76 -0.74,-26.62l0 -293.13 0 -6.19 0 -6.18 6.29 0 6.29 0 94.79 0 6.29 0 6.29 0 0 6.18 0 6.19 0 273.05c0,15.69 0.6,30.07 1.82,43.13 1.21,13.06 3.05,25.08 5.51,36.05 2.38,10.64 5.32,20.13 8.8,28.48 3.47,8.29 7.47,15.49 12,21.6 4.37,5.87 9.52,11.04 15.44,15.49 5.93,4.45 12.66,8.19 20.18,11.19 7.79,3.12 16.41,5.45 25.86,7.01 9.54,1.57 19.99,2.37 31.35,2.37 5.49,0 10.58,-0.08 15.25,-0.22 4.98,-0.16 10.18,-0.4 15.61,-0.73 2.18,-0.14 4.74,-0.31 7.62,-0.52 2.21,-0.16 4.81,-0.36 7.89,-0.61 3.74,-0.31 6.21,-0.52 7.58,-0.65 2.05,-0.18 4.32,-0.41 6.9,-0.69 4.46,-0.47 9.03,-0.98 13.67,-1.51 4.9,-0.57 8.93,-1.05 12.02,-1.45 1.65,-0.21 3.3,-0.45 4.92,-0.71l0.94 -0.16 0 -431.11 0 -6.19 0 -6.18 6.29 0 6.29 0 94.79 0 6.29 0 6.29 0 0 6.18 0 6.19 0 506.95 0 4.83 0 4.81 -4.77 1.17 -4.77 1.18z"/>
  </g>
 </g>
</svg>
